<svg width="20" height="20" viewBox="0 0 20 20" xmlns="http://www.w3.org/2000/svg"><path d="M15.588 9.094C12.431 7.219 7.223 7.047 4.21 7.961a.916.916 0 1 1-.531-1.753c3.46-1.05 9.21-.847 12.845 1.31a.916.916 0 0 1-.935 1.576zm-.103 2.777a.764.764 0 0 1-1.05.252c-2.633-1.618-6.646-2.087-9.76-1.142A.765.765 0 0 1 4.23 9.52c3.557-1.08 7.98-.557 11.003 1.301a.764.764 0 0 1 .25 1.05zm-1.199 2.667a.61.61 0 0 1-.839.203c-2.3-1.405-5.195-1.723-8.604-.944a.61.61 0 1 1-.272-1.19c3.73-.853 6.931-.486 9.513 1.092a.61.61 0 0 1 .202.84zM9.795.411C4.385.411 0 4.796 0 10.205 0 15.615 4.385 20 9.795 20c5.409 0 9.794-4.385 9.794-9.795 0-5.409-4.385-9.794-9.794-9.794z" fill="#FFFFFE" fill-rule="evenodd"/></svg>